<svg xmlns="http://www.w3.org/2000/svg" width="462.991" height="505.962" viewBox="0 0 462.991 505.962">
  <g id="Group_17197" data-name="Group 17197" transform="translate(-3894.146 101.881)">
    <path id="Path_18235" data-name="Path 18235" d="M834.05,1277.5l54.463-31.472,98.523,56.856v101.019l-44.164,25.542-44.163-25.542v-50.042l-10.248-5.876-10.247,5.876v38.34L844.3,1372.594V1334.36l44.163-25.541,44.164,25.49v50.04l10.248,5.931,10.247-5.931V1322.5l-64.607-37.3-54.463,31.473-44.163-25.49v-102.06l78.131,45.1L834.1,1253.783l-10.3-5.93v23.719Z" transform="translate(3104.259 -1025.369)" fill="#14bef0"/>
    <path id="Path_18236" data-name="Path 18236" d="M1021.412,805.068,789.888,671.449V614.483l49.3-28.454L899.93,621.1l72.18-41.577V510.48l-11.439-6.62-11.44,6.62v55.862L899.93,594.8l-49.3-28.57V523.546l37.861-21.834v42.739l11.44,6.62,11.44-6.62V488.588l49.3-28.454,49.3,28.454V601.359L899.93,664.829l-60.742-35.074-11.439,6.562v13.239l193.663,111.785,22.879-13.182L922.808,678.012l98.6-56.909L1252.877,754.78v56.966L1203.634,840.2l-60.741-35.074-72.18,41.578V915.75l11.439,6.619,11.44-6.619V859.886l49.3-28.454,49.3,28.512v42.681l-37.919,21.893v-42.8l-11.382-6.562-11.439,6.562v55.863l-49.3,28.512-49.3-28.512V824.812L1142.893,761.4l60.741,35.074,11.381-6.62v-13.24l-193.6-111.784-22.88,13.183,121.482,70.147Z" transform="translate(3104.259 -562.014)" fill="#14bef0"/>
    <path id="Path_18237" data-name="Path 18237" d="M1732.187,700.406V598.4l-44.114-25.489-33.968,19.61,44.163,25.438v23.72L1569,567.084v-61.85l10.247-5.93,10.248,5.93v50.041l44.165,25.489,44.161-25.592V516.938l-33.967-19.559v38.285l-10.194,5.93-10.249-5.93V485.622l-44.164-25.489-44.164,25.489v101.02Z" transform="translate(2624.95 -562.014)" fill="#14bef0"/>
  </g>
</svg>
